<?xml version="1.0" standalone="no"?>
<!DOCTYPE svg PUBLIC "-//W3C//DTD SVG 20010904//EN"
 "http://www.w3.org/TR/2001/REC-SVG-20010904/DTD/svg10.dtd">
<svg version="1.0" xmlns="http://www.w3.org/2000/svg"
 width="16.000000pt" height="16.000000pt" viewBox="0 0 16.000000 16.000000"
 preserveAspectRatio="xMidYMid meet">

<g transform="translate(0.000000,16.000000) scale(0.100000,-0.100000)"
fill="#000000" stroke="none">
<path d="M0 80 l0 -80 50 0 c40 0 48 3 44 15 -4 9 1 18 12 22 11 4 28 15 39
26 20 18 20 19 1 33 -11 8 -28 14 -38 14 -15 0 -16 4 -8 25 9 25 9 25 -45 25
l-55 0 0 -80z m98 -3 c2 -12 -3 -17 -17 -17 -12 0 -21 6 -21 13 0 31 32 34 38
4z m52 3 c0 -7 -24 -20 -36 -20 -2 0 -4 9 -4 19 0 14 5 18 20 14 11 -3 20 -9
20 -13z"/>
<path d="M70 80 c0 -5 5 -10 10 -10 6 0 10 5 10 10 0 6 -4 10 -10 10 -5 0 -10
-4 -10 -10z"/>
<path d="M123 148 c5 -30 37 -36 37 -8 0 13 -7 20 -20 20 -11 0 -19 -6 -17
-12z"/>
<path d="M122 20 c-11 -18 -10 -20 13 -20 18 0 25 5 25 20 0 11 -6 20 -13 20
-7 0 -18 -9 -25 -20z"/>
</g>
</svg>
